<?xml version="1.0" standalone="no"?>
<!DOCTYPE svg PUBLIC "-//W3C//DTD SVG 20010904//EN"
 "http://www.w3.org/TR/2001/REC-SVG-20010904/DTD/svg10.dtd">
<svg version="1.0" xmlns="http://www.w3.org/2000/svg"
 width="2272.000000pt" height="1704.000000pt" viewBox="0 0 2272.000000 1704.000000"
 preserveAspectRatio="xMidYMid meet">

<circle cx="50%" cy="50%" r="250" fill="#FFFFFF" />

<g transform="translate(0.000000,1704.000000) scale(0.100000,-0.100000)"
fill="#FF0000" stroke="none">
<path d="M10615 11459 c-1165 -19 -2048 -72 -2420 -145 -247 -49 -420 -140
-582 -307 -171 -176 -247 -336 -307 -652 -65 -343 -106 -825 -126 -1480 -23
-743 32 -1688 126 -2180 60 -316 136 -476 307 -652 159 -164 319 -250 560
-302 865 -186 4759 -211 6147 -40 259 32 414 70 540 134 197 99 385 293 475
489 130 281 206 881 235 1851 23 742 -32 1688 -126 2180 -60 316 -136 476
-307 652 -162 167 -335 258 -582 307 -388 76 -1221 125 -2510 146 -630 11
-741 10 -1430 -1z m1003 -2301 c592 -341 1081 -624 1085 -628 6 -6 -2151
-1260 -2168 -1260 -3 0 -5 565 -5 1255 0 690 3 1255 6 1255 3 0 490 -280 1082
-622z"/>
</g>
</svg>
